<?xml version="1.0" encoding="UTF-8"?>
<svg id="Layer_1" xmlns="http://www.w3.org/2000/svg" version="1.1" viewBox="0 0 300 300">
  <!-- Generator: Adobe Illustrator 29.8.7, SVG Export Plug-In . SVG Version: 2.1.1 Build 1)  -->
  <path d="M166.04,90.39h-75.65v118.88h75.65v-12.66c0-.2.91-2.22,1.13-2.58,3.72-6.17,14.27-4.27,15.08,3.26.4,3.72.33,13.75-.77,17.13-1.86,5.7-7.63,10.43-13.63,11.03h-79.28c-7.75-.99-14.01-7.43-14.41-15.31v-120.93c.61-7.85,6.92-14.19,14.71-15.01l78.03-.02c6.23.19,12.3,4.78,14.4,10.59,1.25,3.47,1.42,14.14.92,17.93-.95,7.23-11.39,9.02-15.05,2.95-.22-.36-1.13-2.38-1.13-2.58v-12.66Z"/>
  <path d="M199.82,157.94h-73.46c-.13,0-2.06-.83-2.38-1-5.08-2.84-5.18-11.07-.21-14.08.36-.22,2.38-1.13,2.58-1.13h73.46l-15.03-15.53c-7.67-7.83,3.22-19.39,11.48-11.82,7.66,8.92,16.92,16.9,24.66,25.66,4.64,5.26,6.75,10.73,2.18,17.05-6.93,9.59-19.29,18.43-26.68,28.04-6.83,7-18.04-1.46-13.11-9.73l16.49-17.45Z"/>
</svg>